<svg xmlns="http://www.w3.org/2000/svg" xmlns:xlink="http://www.w3.org/1999/xlink" width="23" height="23.916" viewBox="0 0 23 23.916">
  <defs>
    <clipPath id="clip-path">
      <rect width="23" height="23.916" fill="none"/>
    </clipPath>
  </defs>
  <g id="admin" clip-path="url(#clip-path)">
    <g id="Grupo_1" data-name="Grupo 1">
      <path id="Trazado_5" data-name="Trazado 5" d="M32.517,15.144,30.06,13.12a8.4,8.4,0,0,0,0-2.324l2.458-2.024a.78.78,0,0,0,.18-.992l-2.08-3.6a.778.778,0,0,0-.949-.34L26.682,4.957A8.767,8.767,0,0,0,24.675,3.8L24.151.652A.78.78,0,0,0,23.382,0H19.222a.78.78,0,0,0-.769.652L17.929,3.8a8.773,8.773,0,0,0-2.007,1.159L12.935,3.838a.778.778,0,0,0-.949.34l-2.08,3.6a.78.78,0,0,0,.18.992L12.544,10.8a8.408,8.408,0,0,0,0,2.324l-2.458,2.024a.78.78,0,0,0-.18.992l2.08,3.6a.778.778,0,0,0,.949.34l2.987-1.119a8.767,8.767,0,0,0,2.007,1.159l.524,3.146a.78.78,0,0,0,.769.652h4.159a.78.78,0,0,0,.769-.652l.524-3.146a8.773,8.773,0,0,0,2.007-1.159l2.987,1.119a.778.778,0,0,0,.949-.34l2.08-3.6A.779.779,0,0,0,32.517,15.144Zm-9.656,7.212H19.742V17.991a6.176,6.176,0,0,0,1.56.2,6.079,6.079,0,0,0,1.56-.2v4.366Zm.171-6.055-.054.018a4.625,4.625,0,0,1-3.375-.006l-.033-.012a4.674,4.674,0,0,1-1.193-8,.52.52,0,0,1,.844.407V11.7a.261.261,0,0,0,.131.226l1.82,1.04a.261.261,0,0,0,.258,0l1.82-1.04a.261.261,0,0,0,.131-.226V8.714a.521.521,0,0,1,.844-.407A4.674,4.674,0,0,1,23.033,16.3Z" transform="translate(-9.802)" fill="#0093ca"/>
    </g>
  </g>
</svg>
