<svg width="50" height="50" viewBox="0 0 50 50" fill="none" xmlns="http://www.w3.org/2000/svg">
<path d="M24.9954 49.0705C38.2917 49.0705 49.0705 38.2917 49.0705 24.9954C49.0705 11.6991 38.2917 0.920288 24.9954 0.920288C11.6991 0.920288 0.920288 11.6991 0.920288 24.9954C0.920288 38.2917 11.6991 49.0705 24.9954 49.0705Z" stroke="#005D52" stroke-width="2" stroke-miterlimit="10"/>
<path d="M24.9954 46.6225C36.9397 46.6225 46.6225 36.9397 46.6225 24.9954C46.6225 13.0511 36.9397 3.36829 24.9954 3.36829C13.0511 3.36829 3.36829 13.0511 3.36829 24.9954C3.36829 36.9397 13.0511 46.6225 24.9954 46.6225Z" fill="#59B4A9"/>
<path d="M24.9954 46.6225C36.9397 46.6225 46.6225 36.9397 46.6225 24.9954C46.6225 13.0511 36.9397 3.36829 24.9954 3.36829C13.0511 3.36829 3.36829 13.0511 3.36829 24.9954C3.36829 36.9397 13.0511 46.6225 24.9954 46.6225Z" stroke="white" stroke-width="0.5" stroke-miterlimit="10"/>
<path d="M46.0427 21.0473L37.5207 13.0223L34.3273 12.5805L28.7226 16.7219L20.4123 11.7615L15.9028 12.1388L15.6543 14.6788L13.0867 13.3628L14.0254 19.7221L10.9516 21.0381L12.9579 22.8603L11.7707 22.9892L6.25806 24.3696L11.7154 31.7688L26.7624 46.6225C26.7624 46.6225 34.4929 47.2207 42.3707 38.0361C48.0122 31.4559 46.0703 21.0473 46.0703 21.0473H46.0427Z" fill="#2E867B"/>
<path d="M36.5728 13.6572H37.8888L38.4502 14.6879V13.0314H35.7537L34.3088 12.5897L33.4346 13.0314L26.0998 11.8994L24.7193 11.4025V11.9638L25.7869 12.4608L25.0322 13.0406L24.2131 12.7737L23.3941 12.5897L20.9461 12.5252L20.3847 13.0406H19.3816V12.4608L20.2006 12.5252L20.3847 11.7706L18.0655 12.1755L15.8752 12.7093L14.7432 13.0406L14.4948 13.8413L13.8045 13.4639V14.2186L14.6236 14.6879L14.7524 15.3506L13.8137 14.9732L13.0591 13.3719H11.9271L12.6818 14.6879L13.372 15.599L13.5008 18.1667L13.9978 19.7312H13.2431L11.108 19.3539L10.3534 20.2926L10.9148 21.0472L11.7891 21.3601L11.9731 20.6699L12.5345 21.0472L12.1572 22.0504L12.9118 22.8694L13.1603 24.0014H11.9731L11.7246 22.9983L10.8504 22.4369L9.4699 21.9399V22.9431H8.71526L7.27038 22.6301L6.82864 23.1915L5.88993 22.5657L5.57703 23.1271L6.20283 24.3787L7.70292 25.0045L8.32873 24.5076H8.95453L8.57721 25.3819L8.44837 27.0108L11.6418 31.7779L14.78 29.7073L15.9672 27.6366L14.5224 27.3237L13.7033 27.9495L13.0131 27.4525L12.3873 26.293C12.3873 26.293 13.2615 24.9769 12.829 25.6303C12.3965 26.2837 13.1419 26.8819 13.1419 26.8819L14.3935 26.569L15.4611 27.066H17.5317L18.6637 28.6305L19.6668 28.6949L19.7957 30.4527L20.7988 32.3946L21.986 33.2688H22.8051L21.6179 31.7687L21.489 29.7625L23.6241 27.8207H24.5629L25.2531 29.8269L26.0077 29.9558L26.0721 29.1367L26.6335 29.4312L26.5691 30.4527L26.882 31.3914L26.7532 32.3946L28.3821 34.1523L28.7594 33.3977L27.379 32.1461L27.3146 30.4527L28.3821 31.8976L29.8822 30.3331L28.4373 28.7041L28.8791 27.8851L29.4405 28.1336L31.0694 27.3145L31.7596 25.6211V24.2407L30.6276 23.486L31.005 22.7682H29.8178L29.7534 21.9859L31.005 21.8571L32.3854 23.486L33.0756 22.7682L31.7596 21.7375L32.5787 20.9828L33.3978 20.6699L33.0204 19.1054L32.0817 17.7249L30.5172 17.412L30.7013 16.3445L31.3915 16.004H33.7107V15.0285L34.7782 15.1573V17.0991L36.0942 17.6605L36.2231 19.3539L35.5973 20.1085L35.7813 20.9828L36.9685 19.6668L36.5268 16.8507L35.6525 16.3537L35.7169 15.5346H36.7845L37.7232 14.6879L36.536 13.6572H36.5728Z" fill="white"/>
<path d="M26.1734 32.9559L27.0477 33.3333L28.9251 35.091L29.4313 36.223L31.3731 36.5635H34.1892L35.3856 37.4102L33.6923 38.036L34.0696 37.4102H33.0665H31.0602L29.1184 36.904L28.2993 35.496L26.6059 35.0266L26.1734 32.9559Z" fill="white"/>
<path d="M30.2411 34.1523L30.7749 35.4959H32.1829L32.5602 34.1523L32.8732 32.0172L32.4406 31.0785L32.1829 31.7687L32.2473 32.3945L31.5571 32.5234L30.2411 34.1523Z" fill="white"/>
<path d="M32.2474 26.2837L31.8148 27.3144H32.8732L32.2474 26.2837Z" fill="white"/>
<path d="M38.4502 35.9653V37.0329L39.3337 36.5635V33.9038H38.4502L37.7047 34.907L37.3918 34.1523H36.4531L36.131 33.2872L35.6985 34.1523L36.4531 34.7781L37.1342 35.1646L37.5115 35.9653H38.4502Z" fill="white"/>
<path d="M33.3793 33.6461H34.8794L34.134 34.6492L33.5266 35.0358L34.0051 35.4959L34.1892 36.5635L32.8732 36.223L33.3793 33.6461Z" fill="white"/>
<path d="M32.3394 28.3176V30.1582L33.3794 31.4559L33.8763 32.2473L34.8795 32.5418L35.3856 31.7872L34.5021 31.0785L33.8763 29.9097L32.8732 29.7441V28.3176H32.3394Z" fill="white"/>
<path d="M33.3793 23.2192V24.3051H34.134L35.8918 23.2192V21.673L35.1831 21.0472L34.6401 21.3785C34.6401 21.3785 34.9346 22.5473 34.8886 22.6762C34.8426 22.805 33.3885 23.2192 33.3885 23.2192H33.3793Z" fill="white"/>
<path d="M32.6707 17.412L33.8671 19.2986V20.1729L34.631 19.3354L34.134 18.2955L33.3793 17.0347L32.6707 17.412Z" fill="white"/>
<path d="M34.6309 20.173L34.2168 20.716V21.6363L35.3856 20.5503L34.6309 20.173Z" fill="white"/>
<path d="M15.7464 11.0251H15.2218L14.9733 11.651L15.7464 11.7982L15.8936 12.1479L17.6698 11.9823L18.1208 11.5865H15.9304L15.7464 11.0251Z" fill="white"/>
</svg>
