<?xml version="1.0" encoding="UTF-8"?><svg id="Capa_2" xmlns="http://www.w3.org/2000/svg" viewBox="0 0 54.33 54.33"><defs><style>.cls-1{fill:#fff;}.cls-2{fill:#32b9f2;}.cls-3{fill:#2688b2;}.cls-4{stroke:#107ecf;stroke-width:2px;}.cls-4,.cls-5{fill:none;stroke-miterlimit:10;}.cls-5{stroke:#fff;stroke-width:.5px;}</style></defs><g id="ASIA"><g><circle class="cls-4" cx="27.16" cy="27.16" r="26.16"/><circle class="cls-2" cx="27.16" cy="27.16" r="23.5"/><circle class="cls-5" cx="27.16" cy="27.16" r="23.5"/><path id="Sombra" class="cls-3" d="m50.03,22.87l-9.26-8.72-3.47-.48-6.09,4.5-9.03-5.39-4.9.41-.27,2.76-2.79-1.43,1.02,6.91-3.34,1.43,2.18,1.98-1.29.14-5.99,1.5,5.93,8.04,16.35,16.14s8.4.65,16.96-9.33c6.13-7.15,4.02-18.46,4.02-18.46Z"/><g><path class="cls-1" d="m39.74,14.84h1.43l.61,1.12v-1.8h-2.93l-1.57-.48-.95.48-7.97-1.23-1.5-.54v.61l1.16.54-.82.63-.89-.29-.89-.2-2.66-.07-.61.56h-1.09v-.63l.89.07.2-.82-2.52.44-2.38.58-1.23.36-.27.87-.75-.41v.82l.89.51.14.72-1.02-.41-.82-1.74h-1.23l.82,1.43.75.99.14,2.79.54,1.7h-.82l-2.32-.41-.82,1.02.61.82.95.34.2-.75.61.41-.41,1.09.82.89.27,1.23h-1.29l-.27-1.09-.95-.61-1.5-.54v1.09h-.82l-1.57-.34-.48.61-1.02-.68-.34.61.68,1.36,1.63.68.68-.54h.68l-.41.95-.14,1.77,3.47,5.18,3.41-2.25,1.29-2.25-1.57-.34-.89.68-.75-.54-.68-1.26s.95-1.43.48-.72.34,1.36.34,1.36l1.36-.34,1.16.54h2.25l1.23,1.7,1.09.07.14,1.91,1.09,2.11,1.29.95h.89l-1.29-1.63-.14-2.18,2.32-2.11h1.02l.75,2.18.82.14.07-.89.61.32-.07,1.11.34,1.02-.14,1.09,1.77,1.91.41-.82-1.5-1.36-.07-1.84,1.16,1.57,1.63-1.7-1.57-1.77.48-.89.61.27,1.77-.89.75-1.84v-1.5l-1.23-.82.41-.78h-1.29l-.07-.85,1.36-.14,1.5,1.77.75-.78-1.43-1.12.89-.82.89-.34-.41-1.7-1.02-1.5-1.7-.34.2-1.16.75-.37h2.52v-1.06l1.16.14v2.11l1.43.61.14,1.84-.68.82.2.95,1.29-1.43-.48-3.06-.95-.54.07-.89h1.16l1.02-.92-1.29-1.12Z"/><polygon class="cls-1" points="28.44 35.81 29.39 36.22 31.43 38.13 31.98 39.36 34.09 39.73 37.15 39.73 38.45 40.65 36.61 41.33 37.02 40.65 35.93 40.65 33.75 40.65 31.64 40.1 30.75 38.57 28.91 38.06 28.44 35.81"/><polygon class="cls-1" points="32.86 37.11 33.44 38.57 34.97 38.57 35.38 37.11 35.72 34.79 35.25 33.77 34.97 34.52 35.04 35.2 34.29 35.34 32.86 37.11"/><polygon class="cls-1" points="35.04 28.56 34.57 29.68 35.72 29.68 35.04 28.56"/><polygon class="cls-1" points="41.78 39.08 41.78 40.24 42.74 39.73 42.74 36.84 41.78 36.84 40.97 37.93 40.63 37.11 39.61 37.11 39.26 36.17 38.79 37.11 39.61 37.79 40.35 38.21 40.76 39.08 41.78 39.08"/><polygon class="cls-1" points="36.27 36.56 37.9 36.56 37.09 37.65 36.43 38.07 36.95 38.57 37.15 39.73 35.72 39.36 36.27 36.56"/><polygon class="cls-1" points="35.14 30.77 35.14 32.77 36.27 34.18 36.81 35.04 37.9 35.36 38.45 34.54 37.49 33.77 36.81 32.5 35.72 32.32 35.72 30.77 35.14 30.77"/><path class="cls-1" d="m36.27,25.23v1.18h.82l1.91-1.18v-1.68l-.77-.68-.59.36s.32,1.27.27,1.41-1.63.59-1.63.59Z"/><polygon class="cls-1" points="35.5 18.92 36.8 20.97 36.8 21.92 37.63 21.01 37.09 19.88 36.27 18.51 35.5 18.92"/><polygon class="cls-1" points="37.63 21.92 37.18 22.51 37.18 23.51 38.45 22.33 37.63 21.92"/><polygon class="cls-1" points="17.11 11.98 16.54 11.98 16.27 12.66 17.11 12.82 17.27 13.2 19.2 13.02 19.69 12.59 17.31 12.59 17.11 11.98"/></g></g></g></svg>