<?xml version="1.0" encoding="UTF-8"?><svg id="Capa_2" xmlns="http://www.w3.org/2000/svg" viewBox="0 0 54.33 54.33"><defs><style>.cls-1{fill:#fff;}.cls-2{fill:#32b9f2;}.cls-3{fill:#2688b2;}.cls-4{stroke:#107ecf;stroke-width:2px;}.cls-4,.cls-5{fill:none;stroke-miterlimit:10;}.cls-5{stroke:#fff;stroke-width:.5px;}</style></defs><g id="EUROPA"><g><circle class="cls-4" cx="27.16" cy="27.16" r="26.16"/><circle class="cls-2" cx="27.16" cy="27.16" r="23.5"/><circle class="cls-5" cx="27.16" cy="27.16" r="23.5"/><path id="sombra" class="cls-3" d="m49.8,21.42l-6.72-6.58-3.98.14-.74,2.42.53.75-1.67.85-1.12-.07-.72.82h-1.19l-7.05-6.5-2.25.51-4.15-.26,5.14,4.93-6.61,6.87,2.21,2.15-.98,1.34h-1.8l-3.29-3.83-1.18-.26-3.21-2.77-3.75.54,5.1,5.09-.7,1.82,4.79,4.39-4.79,4.9,12.02,11.9s12.29,1.77,20.06-6.72,6.86-15.71,6.04-22.43Z"/><g><path class="cls-1" d="m45.7,18.62l.51,8.89-.51.27.26.44.56.17v.58l-2.76-.17.2-.44-1.94-.17-1.94.95v.92l1.46,1.46-.14.44-.99.41.2.61,1.53,1.63-.24.44h-.82l-.37-.99-2.89-.27-2.04-.95v-1.53l-.99.1v.54l-2.18-.1s-1.7,1.94-1.6,1.98.58,1.23.58,1.23l-1.63.82-1.19-.17-.14.82.78.37-.24.61h-.54l.51.61,1.23.78h.99l-.24.82-1.7-.27-1.94-2.18-.68-.82v-1.7l-1.36-.41-2.11-1.67-.68.17.61.92,2.38,1.6.41.51-.37.1-.1,1.43-.65.44-.27-.99.41-.89-.92-.1-2.72-2.42-1.16,1.06-1.74-.31v1.29l-1.87,1.46s-.65,1.36-.54,1.36-4.43.34-4.43.34l.48-4.22,3.81-.2.07-1.87-1.53-.44.1-.85h1.36l.31-.61,1.06-.03,1.87-2.25,1.53-.1.03-2.32.72.03v1.63l1.33-.1.54.51h1.16l.54-.54,1.06-.07.51-2.04,1.26-.03.14-.61-.17-.51,2.08.03.07-.78-3.27.2s-.44-.41-.44-.54.1-.75.1-.75l1.26-1.09v-.44l-.89.2-1.67,1.33-.17,1.16,1.02.2-.17.95-.99.48-.27,1.7-1.67-.07-.68-1.09.17-.89-.89.03-.17.54-2.01.07.07-2.55,1.63-.85,1.63-1.57.95-1.36,3.34-1.19,3.37.17,1.12.72s1.4.27,1.5.27,1.57.31,1.57.31l-.27.51-1.02.48-.95-.1-.44-.27.03.95s1.02.41,1.16.54.89.07.89.07l.78-1.33.75-.34-.2-1.09.92.27.17,1.02.75-.03.2-.92,1.67-.85.68.1-.17.54h2.55l-.27-.65-.85-.14v-.61l1.8.2,3.06,1.02Z"/><polygon class="cls-1" points="40.18 17.02 40.18 17.76 39.3 17.76 38 16.85 38.24 15.89 39.09 14.97 41.07 14.15 43.08 14.29 43.08 14.84 41.24 15.11 39.47 15.79 39.5 16.95 40.18 17.02"/><polygon class="cls-1" points="26.94 13.75 24.89 13.75 24.62 13.24 27.14 13.24 26.94 13.75"/><polygon class="cls-1" points="20.74 13.49 22.99 14.87 24.14 14.87 24.62 14.33 25.27 14.36 25.27 14.87 26.53 14.87 26.39 14.15 24.21 13.98 23.63 13.49 20.74 13.49"/><polygon class="cls-1" points="11.03 20.69 11.03 21.92 9.33 22.67 7.29 22.46 6.84 21.68 7.05 20.69 7.97 20.97 8.24 21.68 9.26 21.41 9.57 20.69 11.03 20.69"/><polygon class="cls-1" points="13.38 26.89 14 27.81 13.69 29 12.57 29.58 11.68 29.38 11.68 28.8 12.84 28.73 12.84 28.24 11.68 28.24 11.68 27.54 12.84 27.54 13.38 26.89"/><polygon class="cls-1" points="14.23 25.36 14 26.31 14.57 27.54 15.29 27.54 15.29 28.24 14.47 28.24 14.3 29.41 15.29 29.28 15.29 29.72 14.3 29.72 14.3 30.16 16.14 30.16 16.52 29.75 17.16 29.58 17.3 28.24 16.58 28.24 16.52 27.61 16.04 26.89 15.32 26.72 15.36 26.31 15.97 26.35 15.9 25.8 15.26 25.7 15.43 24.95 14.78 24.95 14.81 25.43 14.23 25.36"/><path class="cls-1" d="m20.74,35.68c.14-.03,1.09,0,1.09,0v1.29h-.85l-.24-1.29Z"/><rect class="cls-1" x="20.88" y="34.52" width=".82" height=".68"/><polygon class="cls-1" points="17.44 36.97 17.67 37.62 18.22 37.3 19.48 35.81 19.07 35.66 17.44 36.97"/><polygon class="cls-1" points="23.12 37.45 24.28 37.62 24.11 38.4 23.63 38.1 23.12 37.45"/><polygon class="cls-1" points="33.44 32.48 35.08 32.65 34.26 33.36 33.61 33.36 33.44 32.48"/></g></g></g></svg>