<svg width="50" height="50" viewBox="0 0 50 50" fill="none" xmlns="http://www.w3.org/2000/svg">
<path d="M24.9954 49.0705C38.2917 49.0705 49.0705 38.2917 49.0705 24.9954C49.0705 11.6991 38.2917 0.920288 24.9954 0.920288C11.6991 0.920288 0.920288 11.6991 0.920288 24.9954C0.920288 38.2917 11.6991 49.0705 24.9954 49.0705Z" stroke="#005D52" stroke-width="2" stroke-miterlimit="10"/>
<path d="M24.9954 46.6225C36.9397 46.6225 46.6225 36.9397 46.6225 24.9954C46.6225 13.0511 36.9397 3.36829 24.9954 3.36829C13.0511 3.36829 3.36829 13.0511 3.36829 24.9954C3.36829 36.9397 13.0511 46.6225 24.9954 46.6225Z" fill="#59B4A9"/>
<path d="M24.9954 46.6225C36.9397 46.6225 46.6225 36.9397 46.6225 24.9954C46.6225 13.0511 36.9397 3.36829 24.9954 3.36829C13.0511 3.36829 3.36829 13.0511 3.36829 24.9954C3.36829 36.9397 13.0511 46.6225 24.9954 46.6225Z" stroke="white" stroke-width="0.5" stroke-miterlimit="10"/>
<path d="M45.831 19.7128L39.6466 13.6572L35.9838 13.7861L35.3027 16.0132L35.7905 16.7034L34.2536 17.4857L33.2229 17.4213L32.5602 18.1759H31.4651L24.9769 12.194L22.9063 12.6633L19.087 12.424L23.8174 16.9611L17.7342 23.2836L19.768 25.2623L18.8661 26.4955H17.2096L14.1818 22.9707L13.0959 22.7314L10.1417 20.1822L6.69055 20.6792L11.3841 25.3635L10.7399 27.0384L15.1481 31.0786L10.7399 35.588L21.8019 46.5396C21.8019 46.5396 33.1124 48.1686 40.2632 40.3552C47.4139 32.5418 46.5764 25.8973 45.8218 19.7128H45.831Z" fill="#2E867B"/>
<path d="M42.0578 17.136L42.5271 25.3175L42.0578 25.566L42.297 25.9709L42.8124 26.1274V26.6611L40.2724 26.5047L40.4564 26.0998L38.6711 25.9433L36.8857 26.8176V27.6643L38.2293 29.0079L38.1005 29.4128L37.1894 29.7902L37.3734 30.3516L38.7815 31.8516L38.5606 32.2566H37.806L37.4655 31.3455L34.8058 31.097L32.9284 30.2227V28.8147L32.0173 28.9067V29.4036L30.011 29.3116C30.011 29.3116 28.4465 31.097 28.5385 31.1338C28.6306 31.1706 29.0723 32.2658 29.0723 32.2658L27.5722 33.0204L26.4771 32.864L26.3482 33.6186L27.0661 33.9591L26.8452 34.5205H26.3482L26.8176 35.0819L27.9495 35.7997H28.8606L28.6398 36.5544L27.0753 36.3059L25.2899 34.2997L24.6641 33.545V31.9805L23.4125 31.6032L21.4706 30.0663L20.8448 30.2227L21.4062 31.0694L23.5965 32.5419L23.9738 33.0112L23.6333 33.1033L23.5413 34.4193L22.9431 34.8242L22.6946 33.9131L23.0719 33.0941L22.2253 33.002L19.722 30.7749L18.6545 31.7504L17.0532 31.4651V32.6523L15.3322 33.9959C15.3322 33.9959 14.734 35.2476 14.8352 35.2476C14.9365 35.2476 10.7583 35.5605 10.7583 35.5605L11.2 31.6768L14.7064 31.4927L14.7708 29.7718L13.3628 29.3668L13.4548 28.5846H14.7064L14.9917 28.0232L15.9672 27.9956L17.6882 25.9249L19.0962 25.8329L19.1238 23.6978L19.7865 23.7254V25.2255L21.0105 25.1334L21.5074 25.6028H22.575L23.0719 25.1058L24.0475 25.0414L24.5168 23.164L25.6764 23.1364L25.8052 22.575L25.6488 22.1057L27.563 22.1333L27.6274 21.4154L24.618 21.5995C24.618 21.5995 24.2131 21.2222 24.2131 21.1025C24.2131 20.9829 24.3051 20.4123 24.3051 20.4123L25.4647 19.4092V19.0042L24.6457 19.1883L23.1088 20.4123L22.9523 21.4798L23.891 21.6639L23.7346 22.5382L22.8235 22.9799L22.575 24.5445L21.0381 24.48L20.4123 23.4769L20.5687 22.6578L19.7496 22.6854L19.5932 23.1824L17.7434 23.2468L17.8078 20.9001L19.3079 20.1178L20.808 18.6729L21.6823 17.4213L24.7561 16.3262L27.8575 16.4826L28.8882 17.1452C28.8882 17.1452 30.1767 17.3937 30.2687 17.3937C30.3607 17.3937 31.7136 17.679 31.7136 17.679L31.4651 18.1484L30.5264 18.5901L29.6521 18.4981L29.2472 18.2496L29.2748 19.1239C29.2748 19.1239 30.2135 19.5012 30.3423 19.6208C30.4712 19.7405 31.1614 19.6853 31.1614 19.6853L31.8792 18.4613L32.5695 18.1484L32.3854 17.1452L33.2321 17.3937L33.3885 18.3324L34.0787 18.3048L34.2628 17.4581L35.7997 16.6759L36.4255 16.7679L36.2691 17.2649H38.6158L38.3674 16.6667L37.5851 16.5378V15.9764L39.2416 16.1605L42.0578 17.0992V17.136Z" fill="white"/>
<path d="M36.9777 15.6636V16.3446H36.1678L34.9714 15.5072L35.1923 14.6237L35.9746 13.777L37.7968 13.0223L39.6466 13.1512V13.6573L37.9532 13.9058L36.3243 14.5316L36.3519 15.5992L36.9777 15.6636Z" fill="white"/>
<path d="M24.7929 12.6542H22.9063L22.6578 12.1848H24.977L24.7929 12.6542Z" fill="white"/>
<path d="M19.087 12.4149L21.1577 13.6849H22.2161L22.6578 13.188L23.256 13.2156V13.6849H24.4156L24.2867 13.0223L22.2805 12.8659L21.7467 12.4149H19.087Z" fill="white"/>
<path d="M10.1509 19.041V20.173L8.58641 20.8632L6.709 20.6699L6.29486 19.9521L6.48812 19.041L7.3348 19.2987L7.58328 19.9521L8.52199 19.7036L8.80728 19.041H10.1509Z" fill="white"/>
<path d="M12.3137 24.7469L12.8842 25.5936L12.599 26.6888L11.5682 27.2226L10.7491 27.0385V26.5047L11.8167 26.4403V25.9894H10.7491V25.3451H11.8167L12.3137 24.7469Z" fill="white"/>
<path d="M13.0959 23.3389L12.8842 24.2132L13.4088 25.3451H14.0714V25.9893H13.3168L13.1603 27.0661L14.0714 26.9465V27.3514H13.1603V27.7563H14.8537L15.2034 27.379L15.7924 27.2225L15.9212 25.9893H15.2586L15.2034 25.4096L14.7616 24.7469L14.099 24.5905L14.1358 24.2132L14.6972 24.25L14.6328 23.7438L14.0438 23.6518L14.2002 22.9615H13.6021L13.6297 23.4033L13.0959 23.3389Z" fill="white"/>
<path d="M19.087 32.8364C19.2159 32.8088 20.0902 32.8364 20.0902 32.8364V34.0236H19.3079L19.087 32.8364Z" fill="white"/>
<path d="M19.9705 31.7688H19.2159V32.3946H19.9705V31.7688Z" fill="white"/>
<path d="M16.05 34.0236L16.2617 34.6218L16.7679 34.3273L17.9275 32.956L17.5501 32.818L16.05 34.0236Z" fill="white"/>
<path d="M21.2774 34.4653L22.345 34.6218L22.1885 35.3396L21.7468 35.0635L21.2774 34.4653Z" fill="white"/>
<path d="M30.7749 29.8915L32.2842 30.0479L31.5295 30.7013H30.9314L30.7749 29.8915Z" fill="white"/>
</svg>
