<?xml version="1.0" encoding="UTF-8"?><svg id="Capa_2" xmlns="http://www.w3.org/2000/svg" viewBox="0 0 54.33 54.33"><defs><style>.cls-1{fill:#fff;}.cls-2{fill:#298eb7;}.cls-3{fill:#32b9f2;}.cls-4{stroke:#107ecf;stroke-width:2px;}.cls-4,.cls-5{fill:none;stroke-miterlimit:10;}.cls-5{stroke:#fff;stroke-width:.5px;}</style></defs><g id="LATAMv"><g><circle class="cls-4" cx="27.16" cy="27.16" r="26.16"/><circle class="cls-3" cx="27.16" cy="27.16" r="23.5"/><circle class="cls-5" cx="27.16" cy="27.16" r="23.5"/><path id="sombra" class="cls-2" d="m49.91,31.59l-13.08-13.15-4.31-1.59-7.36-5.89-3.97-1.03-1.98,14.47,2.52,2.42,3,17.06,6.44,6.57s7.83-1.53,12.84-7.08,5.89-11.78,5.89-11.78Z"/><polygon class="cls-1" points="29.96 15.9 29.71 13.34 26.95 13.08 24.64 10.32 20.46 10.32 20.54 9.93 21.2 9.93 21.17 9.42 19.86 9.52 18.48 10.39 17.8 11.58 17.49 12.79 18.09 13.07 18.29 13.54 18.19 14.26 16.32 16.45 16.32 19.81 19.23 24.41 21.58 25.7 21.48 35.71 24.75 43.88 28.56 45.59 28.97 44.4 27.03 43.95 27.23 36.49 29.11 36.26 29.41 34.62 28.7 34.25 30.54 34.15 33.12 28.02 35.06 27.5 37.31 21.03 36.84 18.45 29.96 15.9"/></g></g></svg>