<svg width="50" height="50" viewBox="0 0 50 50" fill="none" xmlns="http://www.w3.org/2000/svg">
<path d="M24.9954 49.0705C38.2917 49.0705 49.0705 38.2917 49.0705 24.9954C49.0705 11.6991 38.2917 0.920288 24.9954 0.920288C11.6991 0.920288 0.920288 11.6991 0.920288 24.9954C0.920288 38.2917 11.6991 49.0705 24.9954 49.0705Z" stroke="#005D52" stroke-width="2" stroke-miterlimit="10"/>
<path d="M24.9954 46.6225C36.9397 46.6225 46.6225 36.9397 46.6225 24.9954C46.6225 13.0511 36.9397 3.36829 24.9954 3.36829C13.0511 3.36829 3.36829 13.0511 3.36829 24.9954C3.36829 36.9397 13.0511 46.6225 24.9954 46.6225Z" fill="#59B4A9"/>
<path d="M24.9954 46.6225C36.9397 46.6225 46.6225 36.9397 46.6225 24.9954C46.6225 13.0511 36.9397 3.36829 24.9954 3.36829C13.0511 3.36829 3.36829 13.0511 3.36829 24.9954C3.36829 36.9397 13.0511 46.6225 24.9954 46.6225Z" stroke="white" stroke-width="0.5" stroke-miterlimit="10"/>
<path d="M45.9322 29.0723L33.8947 16.9703L29.9282 15.507L23.1548 10.0865L19.5012 9.13855L17.679 22.4553L19.9981 24.6824L22.759 40.3828L28.6858 46.4292C28.6858 46.4292 35.8917 45.0211 40.5024 39.9134C45.1132 34.8058 45.923 29.0723 45.923 29.0723H45.9322Z" fill="#2E867B"/>
<path d="M27.5722 14.6327L27.3421 12.2768L24.8021 12.0375L22.6762 9.49746H18.8293L18.903 9.13854H19.5104L19.4828 8.66919L18.2772 8.76122L17.0071 9.56188L16.3813 10.657L16.096 11.7706L16.6482 12.0283L16.8323 12.4608L16.7403 13.1235L15.0193 15.1389V18.2311L17.6974 22.4645L19.8601 23.6517L19.768 32.8639L22.7774 40.3828L26.2838 41.9565L26.6611 40.8614L24.8757 40.4472L25.0598 33.5818L26.7899 33.3701L27.066 31.8608L26.4126 31.5203L28.106 31.4283L30.4804 25.7868L32.2657 25.3082L34.3364 19.3539L33.9039 16.9795L27.5722 14.6327Z" fill="white"/>
</svg>
