<svg xmlns="http://www.w3.org/2000/svg" xmlns:xlink="http://www.w3.org/1999/xlink" width="64" height="64" viewBox="0 0 64 64"><defs><clipPath id="b"><rect width="64" height="64"/></clipPath></defs><g id="a" clip-path="url(#b)"><rect width="64" height="64" fill="none"/><rect width="64" height="64" fill="none"/><g transform="translate(2.551 1.752)"><path d="M49.782,29.3a22.181,22.181,0,0,1,3.342.3V17.871a6.618,6.618,0,0,0-4.01-6.115L30.735,3.736a6.756,6.756,0,0,0-5.347,0L7.01,11.756A6.688,6.688,0,0,0,3,17.871V29.9C3,45.072,13.693,59.273,28.062,62.715a30.628,30.628,0,0,0,5.347-1.838A20.017,20.017,0,0,1,49.782,29.3Z" transform="translate(-3 -3.185)" fill="#0093ca"/><path d="M26.366,13A13.366,13.366,0,1,0,39.733,26.366,13.363,13.363,0,0,0,26.366,13Zm0,4.611a3.743,3.743,0,1,1-3.743,3.743A3.758,3.758,0,0,1,26.366,17.611Zm0,17.944a9.1,9.1,0,0,1-7.485-3.91c.167-2.406,5.046-3.609,7.485-3.609s7.318,1.2,7.485,3.609A9.1,9.1,0,0,1,26.366,35.556Z" transform="translate(20.416 19.798)" fill="#0093ca"/></g></g></svg>