<svg width="50" height="50" viewBox="0 0 50 50" fill="none" xmlns="http://www.w3.org/2000/svg">
<path d="M24.9954 49.0705C38.2917 49.0705 49.0705 38.2917 49.0705 24.9954C49.0705 11.6991 38.2917 0.920288 24.9954 0.920288C11.6991 0.920288 0.920288 11.6991 0.920288 24.9954C0.920288 38.2917 11.6991 49.0705 24.9954 49.0705Z" stroke="#005E52" stroke-width="2" stroke-miterlimit="10"/>
<path d="M24.9954 46.6225C36.9397 46.6225 46.6225 36.9397 46.6225 24.9954C46.6225 13.0511 36.9397 3.36829 24.9954 3.36829C13.0511 3.36829 3.36829 13.0511 3.36829 24.9954C3.36829 36.9397 13.0511 46.6225 24.9954 46.6225Z" fill="#59B4A9"/>
<path d="M44.3402 15.323L41.9382 13.9885L26.1458 15.0377L23.7622 17.8814L12.9395 17.0899L9.76442 21.7283L5.1261 23.1455L26.79 46.6316C26.79 46.6316 38.7539 45.7942 44.331 34.6769C49.908 23.5597 44.331 15.3322 44.331 15.3322L44.3402 15.323Z" fill="#2E867B"/>
<path d="M26.523 42.113V41.3215H24.9953L24.3051 41.1098V38.9379L23.2191 38.4778V37.3918L23.8081 36.72L22.805 36.5083L22.216 36.8856L22.0043 37.5943H21.3325L19.9153 37.3826V34.0787L21.8387 32.9928L25.1794 32.8271L25.5935 33.7014L25.5107 34.7874H26.3022L26.2193 33.2412L25.9708 32.5694L28.8514 30.9405V29.56L33.278 26.5507H33.9039L33.0296 27.3881L33.9039 27.3053L34.364 26.5507H35.2383V26.0537H34.0235L34.5205 25.5935H35.2291L35.0634 24.7193L36.3611 24.9953L36.5727 24.4708H37.0697C37.0697 24.4708 36.904 24.7193 36.904 24.9953C36.904 25.2714 35.6064 26.0629 35.6064 26.0629L36.5267 26.477L37.5298 26.5599V24.9953L37.2814 24.0106L37.0697 23.3388L36.3611 22.4645L36.2322 21.0841H35.6432L34.8518 21.7559L34.5573 20.7988H33.4253L33.1768 20.2098L32.7627 20.8816L32.1369 21.3786L32.2197 22.5934L30.9221 23.0075L30.6736 24.0934H29.7993L29.7165 22.6762L28.7133 22.3817L27.8759 22.0504L27.6642 20.9644L28.2532 20.2098L29.3023 19.6668L30.4343 19.2895L31.3086 18.8293H32.2289L32.643 18.498H33.186L33.1032 17.955H31.7227L31.5939 18.4152L30.9681 18.1207L31.3454 17.7434L30.7564 16.9887L32.4682 16.2341L31.8424 15.9396L31.1337 16.3537L29.6705 17.274L29.965 17.9458L29.6337 18.3232L24.9769 18.1943L23.7437 17.863L20.8172 17.6145L16.8875 17.4489L15.9672 16.9059L12.921 17.0715L11.6694 17.4857H10.9147V18.1575L11.789 18.2863L11.3749 18.8753L9.41462 18.6269V19.087L10.7122 19.1698L10.5834 19.63L7.98815 19.7588L7.69365 20.173V21.4246L8.65077 21.2957L8.56794 21.6731L7.69365 21.8847L7.27952 22.1332L6.49726 22.3725L5.89907 22.5565L4.81311 22.6394L5.10761 23.1363L6.27639 23.0075L7.11386 22.5473L8.65997 22.3357L9.74593 21.7099L12.2123 20.5779L12.7553 20.7067L13.9241 21.3325L14.7984 21.4614L14.6327 21.8755L14.5499 23.3388L14.964 23.0075L15.0929 22.17L15.4702 22.3357L15.2217 24.0106L15.1757 25.3451L13.3351 28.3544V31.0325L14.0898 31.4927L14.1358 33.8302L15.599 35.9193L16.096 35.2475L14.7616 33.2044L14.8904 32.2841H15.3506L15.3966 33.3701L16.8599 35.8733L16.9427 37.4194L18.1575 38.0084L19.5748 38.8827L20.7435 38.6342L21.1853 39.306L21.8755 39.26L22.2896 39.849L23.0443 39.803L23.2928 41.478C23.2928 41.478 23.7897 41.6068 23.9186 41.6436C24.0474 41.6804 24.6732 42.3983 24.6732 42.3983L26.5138 42.1038L26.523 42.113Z" fill="white"/>
<path d="M41.9473 13.6112V13.9885L39.398 14.237L36.8488 15.2862L34.4652 15.4886V14.9917L35.3395 14.9088L34.2535 14.5499V14.0253L35.8825 13.9425L36.0113 14.5499L36.3886 14.3659L36.5083 13.6112H41.9473Z" fill="white"/>
<path d="M26.7715 16.4917L26.6059 16.869H25.8512L24.7653 17.458L24.9953 18.2127L28.3636 17.9182L28.8238 16.7034L28.6581 15.9487L27.9863 16.4549L28.198 17.0807H27.5722L27.3605 16.4549L26.7715 16.4917Z" fill="white"/>
<path d="M24.2683 17.3292H23.394L23.8266 16.4549L24.9954 15.9487H26.4402L26.2286 16.3261L24.9954 16.4549L24.2683 17.3292Z" fill="white"/>
<path d="M33.2136 16.4089L32.1644 17.3292H33.7934L34.2535 17.0808H34.9621L35.4683 18.2127L33.8118 19.1698L34.9253 19.3815L35.8456 20.3846H36.5083V19.8417L37.1341 19.3815L36.5911 18.8385L37.1341 18.5808L37.5574 19.087L38.6802 18.3968L36.2598 16.4089H33.2136Z" fill="white"/>
<path d="M26.1458 15.0285H27.1949L27.9035 14.5499L28.2348 15.0285L28.6582 15.4886V14.5499L29.6153 14.2002H30.5816L30.0754 14.8444L29.3208 15.4886L28.152 15.9488L27.655 15.0745L26.1458 15.0285Z" fill="white"/>
<path d="M31.6215 14.2002L31.0785 14.7432V15.323L32.1644 15.0745V14.5499L31.6215 14.2002Z" fill="white"/>
<path d="M31.0785 20.3386L31.8331 20.6331V20.1269H32.7534V19.6668L31.327 19.3354L31.0785 20.3386Z" fill="white"/>
<path d="M27.9495 37.8888H30.287V37.309H29.1182L28.8237 36.8489H28.3636V37.3642L27.9495 37.8888Z" fill="white"/>
<path d="M24.5167 35.8826V36.3427H26.1457L27.112 37.1342H27.9495V36.5084L27.0291 36.3427L26.4402 35.8826H24.5167Z" fill="white"/>
<path d="M24.9954 46.6225C36.9397 46.6225 46.6225 36.9397 46.6225 24.9954C46.6225 13.0511 36.9397 3.36829 24.9954 3.36829C13.0511 3.36829 3.36829 13.0511 3.36829 24.9954C3.36829 36.9397 13.0511 46.6225 24.9954 46.6225Z" stroke="white" stroke-width="0.5" stroke-miterlimit="10"/>
</svg>
