<?xml version="1.0" encoding="UTF-8"?><svg id="Capa_2" xmlns="http://www.w3.org/2000/svg" viewBox="0 0 54.33 54.33"><defs><style>.cls-1{fill:#fff;}.cls-2{fill:#32b9f2;}.cls-3{fill:#2688b2;}.cls-4{stroke:#107ecf;stroke-width:2px;}.cls-4,.cls-5{fill:none;stroke-miterlimit:10;}.cls-5{stroke:#fff;stroke-width:.5px;}</style></defs><g id="NORAM"><g><circle class="cls-4" cx="27.16" cy="27.16" r="26.16"/><circle class="cls-2" cx="27.16" cy="27.16" r="23.5"/><path id="sombra" class="cls-3" d="m48.18,16.65l-2.61-1.45-17.16,1.14-2.59,3.09-11.76-.86-3.45,5.04-5.04,1.54,23.54,25.52s13-.91,19.06-12.99,0-21.02,0-21.02Z"/><g><path class="cls-1" d="m28.82,45.76v-.86h-1.66l-.75-.23v-2.36l-1.18-.5v-1.18l.64-.73-1.09-.23-.64.41-.23.77h-.73l-1.54-.23v-3.59l2.09-1.18,3.63-.18.45.95-.09,1.18h.86l-.09-1.68-.27-.73,3.13-1.77v-1.5l4.81-3.27h.68l-.95.91.95-.09.5-.82h.95v-.54h-1.32l.54-.5h.77l-.18-.95,1.41.3.23-.57h.54s-.18.27-.18.57-1.41,1.16-1.41,1.16l1,.45,1.09.09v-1.7l-.27-1.07-.23-.73-.77-.95-.14-1.5h-.64l-.86.73-.32-1.04h-1.23l-.27-.64-.45.73-.68.54.09,1.32-1.41.45-.27,1.18h-.95l-.09-1.54-1.09-.32-.91-.36-.23-1.18.64-.82,1.14-.59,1.23-.41.95-.5h1l.45-.36h.59l-.09-.59h-1.5l-.14.5-.68-.32.41-.41-.64-.82,1.86-.82-.68-.32-.77.45-1.59,1,.32.73-.36.41-5.06-.14-1.34-.36-3.18-.27-4.27-.18-1-.59-3.31.18-1.36.45h-.82v.73l.95.14-.45.64-2.13-.27v.5l1.41.09-.14.5-2.82.14-.32.45v1.36l1.04-.14-.09.41-.95.23-.45.27-.85.26-.65.2-1.18.09.32.54,1.27-.14.91-.5,1.68-.23,1.18-.68,2.68-1.23.59.14,1.27.68.95.14-.18.45-.09,1.59.45-.36.14-.91.41.18-.27,1.82-.05,1.45-2,3.27v2.91l.82.5.05,2.54,1.59,2.27.54-.73-1.45-2.22.14-1h.5l.05,1.18,1.59,2.72.09,1.68,1.32.64,1.54.95,1.27-.27.48.73.75-.05.45.64.82-.05.27,1.82s.54.14.68.18.82.82.82.82l2-.32Z"/><polygon class="cls-1" points="45.58 14.79 45.58 15.2 42.81 15.47 40.04 16.61 37.45 16.83 37.45 16.29 38.4 16.2 37.22 15.81 37.22 15.24 38.99 15.15 39.13 15.81 39.54 15.61 39.67 14.79 45.58 14.79"/><polygon class="cls-1" points="29.09 17.92 28.91 18.33 28.09 18.33 26.91 18.97 27.16 19.79 30.82 19.47 31.32 18.15 31.14 17.33 30.41 17.88 30.64 18.56 29.96 18.56 29.73 17.88 29.09 17.92"/><polygon class="cls-1" points="26.37 18.83 25.42 18.83 25.89 17.88 27.16 17.33 28.73 17.33 28.5 17.74 27.16 17.88 26.37 18.83"/><polygon class="cls-1" points="36.09 17.83 34.95 18.83 36.72 18.83 37.22 18.56 37.99 18.56 38.54 19.79 36.74 20.83 37.95 21.06 38.95 22.15 39.67 22.15 39.67 21.56 40.35 21.06 39.76 20.47 40.35 20.19 40.81 20.74 42.03 19.99 39.4 17.83 36.09 17.83"/><polygon class="cls-1" points="28.41 16.33 29.55 16.33 30.32 15.81 30.68 16.33 31.14 16.83 31.14 15.81 32.18 15.43 33.23 15.43 32.68 16.13 31.86 16.83 30.59 17.33 30.05 16.38 28.41 16.33"/><polygon class="cls-1" points="34.36 15.43 33.77 16.02 33.77 16.65 34.95 16.38 34.95 15.81 34.36 15.43"/><polygon class="cls-1" points="33.77 22.1 34.59 22.42 34.59 21.87 35.59 21.87 35.59 21.37 34.04 21.01 33.77 22.1"/><polygon class="cls-1" points="30.37 41.17 32.91 41.17 32.91 40.54 31.64 40.54 31.32 40.04 30.82 40.04 30.82 40.6 30.37 41.17"/><polygon class="cls-1" points="26.64 38.99 26.64 39.49 28.41 39.49 29.46 40.35 30.37 40.35 30.37 39.67 29.37 39.49 28.73 38.99 26.64 38.99"/></g><circle class="cls-5" cx="27.16" cy="27.16" r="23.5"/></g></g></svg>