<svg id="sign-out-option" xmlns="http://www.w3.org/2000/svg" width="36.016" height="29.401" viewBox="0 0 36.016 29.401">
  <g id="Grupo_18" data-name="Grupo 18" transform="translate(0 0)">
    <path id="Trazado_10" data-name="Trazado 10" d="M14.7,68.311A.6.6,0,0,1,14.654,68c.016-.084-.038-.153-.161-.206s-.184-.1-.184-.126-.088-.054-.264-.069l-.264-.023H6.615a3.538,3.538,0,0,1-2.6-1.08A3.539,3.539,0,0,1,2.94,63.9V47.73a3.538,3.538,0,0,1,1.079-2.6,3.539,3.539,0,0,1,2.6-1.08h7.35a.694.694,0,0,0,.471-.149.763.763,0,0,0,.23-.448,3.865,3.865,0,0,0,.069-.54,5.715,5.715,0,0,0-.012-.609q-.023-.367-.023-.46a.745.745,0,0,0-.735-.735H6.615a6.372,6.372,0,0,0-4.674,1.941A6.372,6.372,0,0,0,0,47.73V63.9a6.371,6.371,0,0,0,1.941,4.674,6.37,6.37,0,0,0,4.674,1.942h7.351a.7.7,0,0,0,.471-.149.763.763,0,0,0,.23-.448,3.872,3.872,0,0,0,.069-.54,5.709,5.709,0,0,0-.012-.608Q14.7,68.4,14.7,68.311Z" transform="translate(0 -41.115)" fill="#fff"/>
    <path id="Trazado_11" data-name="Trazado 11" d="M136.393,63.178l-12.5-12.5a1.47,1.47,0,0,0-2.5,1.034v6.615H111.1a1.49,1.49,0,0,0-1.47,1.47v8.82a1.491,1.491,0,0,0,1.47,1.47h10.29v6.615a1.462,1.462,0,0,0,2.5,1.034l12.5-12.5a1.443,1.443,0,0,0,0-2.068Z" transform="translate(-100.813 -49.511)" fill="#fff"/>
  </g>
</svg>
