<svg xmlns="http://www.w3.org/2000/svg" xmlns:xlink="http://www.w3.org/1999/xlink" width="23" height="23" viewBox="0 0 23 23">
  <defs>
    <clipPath id="clip-path">
      <rect width="23" height="23" fill="none"/>
    </clipPath>
  </defs>
  <g id="statistics" clip-path="url(#clip-path)">
    <path id="Trazado_6" data-name="Trazado 6" d="M33.021,10.781a2.011,2.011,0,0,0,1.4-.568l1.995,1a1.98,1.98,0,0,0-.025.245,2.021,2.021,0,0,0,4.043,0,2,2,0,0,0-.2-.866l2.706-2.706a2,2,0,0,0,.866.2,2.024,2.024,0,0,0,2.021-2.021,1.991,1.991,0,0,0-.1-.6L48.074,3.7a2.02,2.02,0,1,0-.9-1.681,1.991,1.991,0,0,0,.1.6L44.922,4.383A2.013,2.013,0,0,0,41.984,6.93L39.278,9.636A1.986,1.986,0,0,0,37.013,10L35.018,9a1.98,1.98,0,0,0,.025-.245,2.021,2.021,0,1,0-2.021,2.021Zm0,0" transform="translate(-29.607)" fill="#0093ca"/>
    <path id="Trazado_7" data-name="Trazado 7" d="M22.326,164.914h-.719v-14.24a.674.674,0,0,0-.674-.674h-2.7a.674.674,0,0,0-.674.674v14.24H16.217v-10.2a.674.674,0,0,0-.674-.674h-2.7a.674.674,0,0,0-.674.674v10.2H10.826v-4.807a.674.674,0,0,0-.674-.674h-2.7a.674.674,0,0,0-.674.674v4.807H5.436v-7.5a.674.674,0,0,0-.674-.674h-2.7a.674.674,0,0,0-.674.674v7.5H.674a.674.674,0,0,0,0,1.348H22.326a.674.674,0,0,0,0-1.348Zm0,0" transform="translate(0 -143.262)" fill="#0093ca"/>
  </g>
</svg>
