<svg xmlns="http://www.w3.org/2000/svg" width="512" height="469.333" viewBox="0 0 512 469.333">
  <g id="utilitarios" transform="translate(0 -21.334)">
    <g id="Grupo_7034" data-name="Grupo 7034">
      <g id="Grupo_7033" data-name="Grupo 7033">
        <path id="Trazado_397" data-name="Trazado 397" d="M512,256V192a64,64,0,0,0-64-64H64A64,64,0,0,0,0,192v64H128v42.667H0V469.334a21.333,21.333,0,0,0,21.333,21.333H490.666A21.333,21.333,0,0,0,512,469.334V298.667H384V256ZM362.667,341.333H339.2a85.354,85.354,0,0,1-8.533,21.333l17.067,17.067L317.867,409.6,300.8,392.533l-21.333,8.533v25.6h-44.8V403.2l-21.333-8.533-17.067,17.067-29.867-32,17.067-17.067a85.316,85.316,0,0,1-8.533-21.333h-25.6V298.667H172.8a85.354,85.354,0,0,1,8.533-21.333l-17.067-17.067L194.133,230.4,211.2,247.467l21.333-8.533v-25.6H275.2V236.8l21.333,8.533L313.6,228.266l29.867,29.867L326.4,275.2a85.316,85.316,0,0,1,8.533,21.333h27.733v44.8Z" fill="#0093ca"/>
        <circle id="Elipse_48" data-name="Elipse 48" cx="42.667" cy="42.667" r="42.667" transform="translate(213.333 277.333)" fill="#0093ca"/>
        <path id="Trazado_398" data-name="Trazado 398" d="M192,64H320v42.667h42.667v-64a21.333,21.333,0,0,0-21.333-21.333H170.667a21.333,21.333,0,0,0-21.333,21.333v64H192Z" fill="#0093ca"/>
      </g>
    </g>
  </g>
</svg>
